<?xml version="1.0" encoding="utf-8"?>
<!-- Generator: Adobe Illustrator 27.4.0, SVG Export Plug-In . SVG Version: 6.00 Build 0)  -->
<svg version="1.1" id="Layer_1" xmlns="http://www.w3.org/2000/svg" xmlns:xlink="http://www.w3.org/1999/xlink" x="0px" y="0px"
	 viewBox="0 0 302 71.2" style="enable-background:new 0 0 302 71.2;" xml:space="preserve">
<style type="text/css">
	.st0{fill:#FFFFFF;stroke:#FFFFFF;stroke-width:0.2162;stroke-miterlimit:10;}
	.st1{fill:#FFFFFF;}
	.st2{fill:none;stroke:#FFFFFF;stroke-width:2.2346;stroke-miterlimit:10;}
</style>
<g>
	<g>
		<g>
			<path class="st0" d="M77.5,52.4c-0.3,0.3-0.8,0.4-1.4,0.4h-1.3v2.6h-0.4v-5.9H76c0.6,0,1.1,0.1,1.4,0.4c0.3,0.3,0.5,0.7,0.5,1.2
				C78,51.7,77.8,52.1,77.5,52.4z M77.6,51.2c0-0.4-0.1-0.8-0.4-1C77,50,76.6,49.8,76,49.8h-1.3v2.6H76C77.1,52.5,77.6,52,77.6,51.2
				z"/>
			<path class="st0" d="M83.5,55.4L82,52.9h0h-1.3v2.5h-0.4v-5.9h1.6c0.7,0,1.1,0.2,1.5,0.5c0.3,0.3,0.5,0.7,0.5,1.2
				c0,0.5-0.1,0.8-0.4,1.1c-0.3,0.3-0.6,0.5-1.1,0.5l1.5,2.5H83.5z M80.7,52.6h1.3c0.5,0,0.9-0.1,1.2-0.4c0.3-0.3,0.4-0.6,0.4-1
				c0-0.9-0.5-1.3-1.6-1.3h-1.2V52.6z"/>
			<path class="st0" d="M87.5,55.1c-0.4-0.3-0.8-0.6-1-1.1c-0.2-0.5-0.4-1-0.4-1.5c0-0.6,0.1-1.1,0.4-1.5c0.2-0.5,0.6-0.8,1-1.1
				c0.4-0.3,0.9-0.4,1.5-0.4c0.5,0,1,0.1,1.5,0.4c0.4,0.3,0.8,0.6,1,1.1c0.2,0.5,0.4,1,0.4,1.5c0,0.6-0.1,1.1-0.4,1.5
				c-0.2,0.5-0.6,0.8-1,1.1c-0.4,0.3-0.9,0.4-1.5,0.4C88.4,55.4,87.9,55.3,87.5,55.1z M90.2,54.8c0.4-0.2,0.7-0.5,0.9-0.9
				c0.2-0.4,0.3-0.9,0.3-1.4c0-0.5-0.1-1-0.3-1.4c-0.2-0.4-0.5-0.7-0.9-0.9c-0.4-0.2-0.8-0.3-1.3-0.3c-0.5,0-0.9,0.1-1.3,0.3
				c-0.4,0.2-0.7,0.5-0.9,0.9c-0.2,0.4-0.3,0.9-0.3,1.4c0,0.5,0.1,1,0.3,1.4c0.2,0.4,0.5,0.7,0.9,0.9c0.4,0.2,0.8,0.3,1.3,0.3
				C89.4,55.1,89.8,55,90.2,54.8z"/>
			<path class="st0" d="M98.7,49.5l-2.2,5.9H96l-2.2-5.9h0.4l2,5.4l2-5.4H98.7z"/>
			<path class="st0" d="M101.3,49.5v5.9h-0.4v-5.9H101.3z"/>
			<path class="st0" d="M107.9,50.3c0.5,0.5,0.8,1.2,0.8,2.2c0,0.9-0.3,1.6-0.8,2.2c-0.5,0.5-1.3,0.8-2.3,0.8H104v-5.9h1.6
				C106.6,49.5,107.4,49.8,107.9,50.3z M107.7,54.4c0.5-0.5,0.7-1.1,0.7-1.9c0-0.8-0.2-1.5-0.7-1.9c-0.5-0.5-1.1-0.7-2-0.7h-1.3v5.2
				h1.3C106.5,55.1,107.2,54.8,107.7,54.4z"/>
			<path class="st0" d="M111.6,49.5v5.9h-0.4v-5.9H111.6z"/>
			<path class="st0" d="M118.5,55.4h-0.4l-3.4-5.2v5.2h-0.4v-5.9h0.4l3.4,5.2v-5.2h0.4V55.4z"/>
			<path class="st0" d="M126,51.2c-0.2-0.4-0.4-0.8-0.8-1.1s-0.8-0.4-1.4-0.4c-0.5,0-0.9,0.1-1.3,0.3c-0.4,0.2-0.7,0.5-0.9,0.9
				c-0.2,0.4-0.3,0.9-0.3,1.4s0.1,1,0.3,1.4c0.2,0.4,0.5,0.7,0.9,0.9c0.4,0.2,0.8,0.3,1.3,0.3c0.4,0,0.8-0.1,1.2-0.3
				c0.4-0.2,0.7-0.5,0.9-0.9c0.2-0.4,0.3-0.8,0.4-1.3h-2.6v-0.3h3v0.3c0,0.5-0.1,1-0.4,1.5c-0.2,0.4-0.6,0.8-1,1
				c-0.4,0.2-0.9,0.4-1.4,0.4c-0.5,0-1-0.1-1.5-0.4c-0.4-0.3-0.8-0.6-1-1.1c-0.2-0.5-0.4-1-0.4-1.5c0-0.6,0.1-1.1,0.4-1.5
				c0.2-0.5,0.6-0.8,1-1.1c0.4-0.3,0.9-0.4,1.5-0.4c0.6,0,1.2,0.2,1.6,0.5c0.5,0.3,0.8,0.8,1,1.3H126z"/>
			<path class="st0" d="M132.9,50.9c0.2-0.5,0.6-0.8,1-1.1c0.4-0.3,0.9-0.4,1.4-0.4c0.7,0,1.2,0.2,1.7,0.5c0.5,0.3,0.8,0.7,1,1.3
				h-0.4c-0.2-0.4-0.4-0.8-0.8-1.1c-0.4-0.3-0.9-0.4-1.4-0.4c-0.5,0-0.9,0.1-1.2,0.3c-0.4,0.2-0.7,0.5-0.9,0.9
				c-0.2,0.4-0.3,0.9-0.3,1.4c0,0.5,0.1,1,0.3,1.4c0.2,0.4,0.5,0.7,0.9,0.9c0.4,0.2,0.8,0.3,1.2,0.3c0.6,0,1-0.1,1.4-0.4
				c0.4-0.3,0.7-0.6,0.8-1.1h0.4c-0.2,0.6-0.5,1-1,1.3c-0.5,0.3-1,0.5-1.7,0.5c-0.5,0-1-0.1-1.4-0.4c-0.4-0.3-0.8-0.6-1-1.1
				c-0.2-0.5-0.4-1-0.4-1.5C132.6,51.9,132.7,51.4,132.9,50.9z"/>
			<path class="st0" d="M140.9,49.5v3.7c0,0.7,0.2,1.1,0.5,1.5c0.3,0.3,0.7,0.5,1.2,0.5c0.5,0,0.9-0.2,1.2-0.5
				c0.3-0.3,0.4-0.8,0.4-1.5v-3.7h0.4v3.7c0,0.8-0.2,1.3-0.6,1.7c-0.4,0.4-0.9,0.6-1.5,0.6c-0.6,0-1.1-0.2-1.5-0.6
				c-0.4-0.4-0.6-0.9-0.6-1.7v-3.7H140.9z"/>
			<path class="st0" d="M148,55.2c-0.3-0.1-0.5-0.3-0.7-0.5c-0.2-0.2-0.2-0.5-0.3-0.8h0.4c0,0.3,0.2,0.6,0.4,0.8
				c0.2,0.2,0.6,0.4,1.1,0.4c0.3,0,0.5-0.1,0.8-0.2s0.4-0.3,0.5-0.4c0.1-0.2,0.2-0.4,0.2-0.6c0-0.3-0.1-0.5-0.2-0.7
				c-0.1-0.2-0.3-0.3-0.5-0.4c-0.2-0.1-0.5-0.2-0.8-0.3c-0.4-0.1-0.7-0.2-0.9-0.3c-0.2-0.1-0.4-0.3-0.6-0.5
				c-0.2-0.2-0.2-0.5-0.2-0.9c0-0.3,0.1-0.5,0.2-0.8c0.1-0.2,0.4-0.4,0.6-0.5c0.3-0.1,0.6-0.2,0.9-0.2c0.5,0,0.9,0.1,1.3,0.4
				c0.3,0.3,0.5,0.6,0.6,0.9h-0.4c0-0.2-0.1-0.3-0.2-0.5c-0.1-0.2-0.3-0.3-0.5-0.4c-0.2-0.1-0.5-0.2-0.7-0.2c-0.4,0-0.7,0.1-1,0.3
				c-0.3,0.2-0.4,0.5-0.4,0.9c0,0.3,0.1,0.5,0.2,0.7c0.1,0.2,0.3,0.3,0.5,0.4c0.2,0.1,0.5,0.2,0.8,0.3c0.4,0.1,0.7,0.2,0.9,0.3
				c0.2,0.1,0.4,0.3,0.6,0.5s0.2,0.5,0.2,0.8c0,0.3-0.1,0.5-0.2,0.7c-0.1,0.2-0.3,0.4-0.6,0.6c-0.3,0.1-0.6,0.2-1,0.2
				C148.6,55.4,148.3,55.4,148,55.2z"/>
			<path class="st0" d="M156.5,49.5v0.3h-1.7v5.5h-0.4v-5.5h-1.7v-0.3H156.5z"/>
			<path class="st0" d="M159.9,55.1c-0.4-0.3-0.8-0.6-1-1.1c-0.2-0.5-0.4-1-0.4-1.5c0-0.6,0.1-1.1,0.4-1.5c0.2-0.5,0.6-0.8,1-1.1
				s0.9-0.4,1.5-0.4c0.5,0,1,0.1,1.5,0.4s0.8,0.6,1,1.1c0.2,0.5,0.4,1,0.4,1.5c0,0.6-0.1,1.1-0.4,1.5c-0.2,0.5-0.6,0.8-1,1.1
				s-0.9,0.4-1.5,0.4C160.8,55.4,160.3,55.3,159.9,55.1z M162.6,54.8c0.4-0.2,0.7-0.5,0.9-0.9c0.2-0.4,0.3-0.9,0.3-1.4
				c0-0.5-0.1-1-0.3-1.4c-0.2-0.4-0.5-0.7-0.9-0.9c-0.4-0.2-0.8-0.3-1.3-0.3c-0.5,0-0.9,0.1-1.3,0.3c-0.4,0.2-0.7,0.5-0.9,0.9
				c-0.2,0.4-0.3,0.9-0.3,1.4c0,0.5,0.1,1,0.3,1.4c0.2,0.4,0.5,0.7,0.9,0.9c0.4,0.2,0.8,0.3,1.3,0.3C161.8,55.1,162.2,55,162.6,54.8
				z"/>
			<path class="st0" d="M172.1,49.6v5.7h-0.4v-5l-2.2,5h-0.3l-2.2-5v5h-0.4v-5.7h0.4l2.3,5.2l2.3-5.2H172.1z"/>
			<path class="st0" d="M175.2,49.8v2.4h2.3v0.3h-2.3v2.5h2.6v0.3h-3v-5.9h3v0.3H175.2z"/>
			<path class="st0" d="M183.4,55.4l-1.5-2.5h0h-1.3v2.5h-0.4v-5.9h1.6c0.7,0,1.1,0.2,1.5,0.5c0.3,0.3,0.5,0.7,0.5,1.2
				c0,0.5-0.1,0.8-0.4,1.1c-0.3,0.3-0.6,0.5-1.1,0.5l1.5,2.5H183.4z M180.6,52.6h1.3c0.5,0,0.9-0.1,1.2-0.4c0.3-0.3,0.4-0.6,0.4-1
				c0-0.9-0.5-1.3-1.6-1.3h-1.2V52.6z"/>
			<path class="st0" d="M187,55.2c-0.3-0.1-0.5-0.3-0.7-0.5c-0.2-0.2-0.2-0.5-0.3-0.8h0.4c0,0.3,0.2,0.6,0.4,0.8
				c0.2,0.2,0.6,0.4,1.1,0.4c0.3,0,0.5-0.1,0.8-0.2s0.4-0.3,0.5-0.4c0.1-0.2,0.2-0.4,0.2-0.6c0-0.3-0.1-0.5-0.2-0.7
				c-0.1-0.2-0.3-0.3-0.5-0.4c-0.2-0.1-0.5-0.2-0.8-0.3c-0.4-0.1-0.7-0.2-0.9-0.3c-0.2-0.1-0.4-0.3-0.6-0.5
				c-0.2-0.2-0.2-0.5-0.2-0.9c0-0.3,0.1-0.5,0.2-0.8c0.1-0.2,0.4-0.4,0.6-0.5c0.3-0.1,0.6-0.2,0.9-0.2c0.5,0,0.9,0.1,1.3,0.4
				c0.3,0.3,0.5,0.6,0.6,0.9h-0.4c0-0.2-0.1-0.3-0.2-0.5c-0.1-0.2-0.3-0.3-0.5-0.4c-0.2-0.1-0.5-0.2-0.7-0.2c-0.4,0-0.7,0.1-1,0.3
				c-0.3,0.2-0.4,0.5-0.4,0.9c0,0.3,0.1,0.5,0.2,0.7c0.1,0.2,0.3,0.3,0.5,0.4c0.2,0.1,0.5,0.2,0.8,0.3c0.4,0.1,0.7,0.2,0.9,0.3
				c0.2,0.1,0.4,0.3,0.6,0.5c0.2,0.2,0.2,0.5,0.2,0.8c0,0.3-0.1,0.5-0.2,0.7c-0.1,0.2-0.3,0.4-0.6,0.6c-0.3,0.1-0.6,0.2-1,0.2
				C187.6,55.4,187.3,55.4,187,55.2z"/>
			<path class="st0" d="M199,49.5v0.3h-2.6v2.4h2.3v0.3h-2.3v2.8h-0.4v-5.9H199z"/>
			<path class="st0" d="M202.4,55.1c-0.4-0.3-0.8-0.6-1-1.1c-0.2-0.5-0.4-1-0.4-1.5c0-0.6,0.1-1.1,0.4-1.5c0.2-0.5,0.6-0.8,1-1.1
				c0.4-0.3,0.9-0.4,1.5-0.4c0.5,0,1,0.1,1.5,0.4c0.4,0.3,0.8,0.6,1,1.1c0.2,0.5,0.4,1,0.4,1.5c0,0.6-0.1,1.1-0.4,1.5
				c-0.2,0.5-0.6,0.8-1,1.1c-0.4,0.3-0.9,0.4-1.5,0.4C203.4,55.4,202.9,55.3,202.4,55.1z M205.2,54.8c0.4-0.2,0.7-0.5,0.9-0.9
				c0.2-0.4,0.3-0.9,0.3-1.4c0-0.5-0.1-1-0.3-1.4c-0.2-0.4-0.5-0.7-0.9-0.9c-0.4-0.2-0.8-0.3-1.3-0.3c-0.5,0-0.9,0.1-1.3,0.3
				c-0.4,0.2-0.7,0.5-0.9,0.9c-0.2,0.4-0.3,0.9-0.3,1.4c0,0.5,0.1,1,0.3,1.4c0.2,0.4,0.5,0.7,0.9,0.9c0.4,0.2,0.8,0.3,1.3,0.3
				C204.4,55.1,204.8,55,205.2,54.8z"/>
			<path class="st0" d="M209.4,50.9c0.2-0.5,0.6-0.8,1-1.1c0.4-0.3,0.9-0.4,1.4-0.4c0.7,0,1.2,0.2,1.7,0.5c0.5,0.3,0.8,0.7,1,1.3
				H214c-0.2-0.4-0.4-0.8-0.8-1.1c-0.4-0.3-0.9-0.4-1.4-0.4c-0.5,0-0.9,0.1-1.2,0.3c-0.4,0.2-0.7,0.5-0.9,0.9
				c-0.2,0.4-0.3,0.9-0.3,1.4c0,0.5,0.1,1,0.3,1.4c0.2,0.4,0.5,0.7,0.9,0.9c0.4,0.2,0.8,0.3,1.2,0.3c0.6,0,1-0.1,1.4-0.4
				c0.4-0.3,0.7-0.6,0.8-1.1h0.4c-0.2,0.6-0.5,1-1,1.3c-0.5,0.3-1,0.5-1.7,0.5c-0.5,0-1-0.1-1.4-0.4c-0.4-0.3-0.8-0.6-1-1.1
				c-0.2-0.5-0.4-1-0.4-1.5C209,51.9,209.1,51.4,209.4,50.9z"/>
			<path class="st0" d="M217.3,49.5v3.7c0,0.7,0.2,1.1,0.5,1.5c0.3,0.3,0.7,0.5,1.2,0.5c0.5,0,0.9-0.2,1.2-0.5
				c0.3-0.3,0.4-0.8,0.4-1.5v-3.7h0.4v3.7c0,0.8-0.2,1.3-0.6,1.7s-0.9,0.6-1.5,0.6s-1.1-0.2-1.5-0.6c-0.4-0.4-0.6-0.9-0.6-1.7v-3.7
				H217.3z"/>
			<path class="st0" d="M224.4,55.2c-0.3-0.1-0.5-0.3-0.7-0.5c-0.2-0.2-0.2-0.5-0.3-0.8h0.4c0,0.3,0.2,0.6,0.4,0.8
				c0.2,0.2,0.6,0.4,1.1,0.4c0.3,0,0.5-0.1,0.8-0.2c0.2-0.1,0.4-0.3,0.5-0.4c0.1-0.2,0.2-0.4,0.2-0.6c0-0.3-0.1-0.5-0.2-0.7
				c-0.1-0.2-0.3-0.3-0.5-0.4c-0.2-0.1-0.5-0.2-0.8-0.3c-0.4-0.1-0.7-0.2-0.9-0.3c-0.2-0.1-0.4-0.3-0.6-0.5s-0.2-0.5-0.2-0.9
				c0-0.3,0.1-0.5,0.2-0.8c0.1-0.2,0.4-0.4,0.6-0.5c0.3-0.1,0.6-0.2,0.9-0.2c0.5,0,0.9,0.1,1.3,0.4c0.3,0.3,0.5,0.6,0.6,0.9h-0.4
				c0-0.2-0.1-0.3-0.2-0.5c-0.1-0.2-0.3-0.3-0.5-0.4c-0.2-0.1-0.5-0.2-0.7-0.2c-0.4,0-0.7,0.1-1,0.3c-0.3,0.2-0.4,0.5-0.4,0.9
				c0,0.3,0.1,0.5,0.2,0.7c0.1,0.2,0.3,0.3,0.5,0.4c0.2,0.1,0.5,0.2,0.8,0.3c0.4,0.1,0.7,0.2,0.9,0.3c0.2,0.1,0.4,0.3,0.6,0.5
				c0.2,0.2,0.2,0.5,0.2,0.8c0,0.3-0.1,0.5-0.2,0.7c-0.1,0.2-0.3,0.4-0.6,0.6c-0.3,0.1-0.6,0.2-1,0.2
				C225,55.4,224.7,55.4,224.4,55.2z"/>
			<path class="st0" d="M230,49.8v2.4h2.3v0.3H230v2.5h2.6v0.3h-3v-5.9h3v0.3H230z"/>
			<path class="st0" d="M239,50.3c0.5,0.5,0.8,1.2,0.8,2.2c0,0.9-0.3,1.6-0.8,2.2c-0.5,0.5-1.3,0.8-2.3,0.8h-1.6v-5.9h1.6
				C237.7,49.5,238.5,49.8,239,50.3z M238.8,54.4c0.5-0.5,0.7-1.1,0.7-1.9c0-0.8-0.2-1.5-0.7-1.9c-0.5-0.5-1.1-0.7-2-0.7h-1.3v5.2
				h1.3C237.6,55.1,238.3,54.8,238.8,54.4z"/>
			<path class="st0" d="M246.7,55.2c-0.3-0.1-0.5-0.3-0.7-0.5c-0.2-0.2-0.2-0.5-0.3-0.8h0.4c0,0.3,0.2,0.6,0.4,0.8
				c0.2,0.2,0.6,0.4,1.1,0.4c0.3,0,0.5-0.1,0.8-0.2c0.2-0.1,0.4-0.3,0.5-0.4c0.1-0.2,0.2-0.4,0.2-0.6c0-0.3-0.1-0.5-0.2-0.7
				c-0.1-0.2-0.3-0.3-0.5-0.4c-0.2-0.1-0.5-0.2-0.8-0.3c-0.4-0.1-0.7-0.2-0.9-0.3c-0.2-0.1-0.4-0.3-0.6-0.5s-0.2-0.5-0.2-0.9
				c0-0.3,0.1-0.5,0.2-0.8c0.1-0.2,0.4-0.4,0.6-0.5c0.3-0.1,0.6-0.2,0.9-0.2c0.5,0,0.9,0.1,1.3,0.4c0.3,0.3,0.5,0.6,0.6,0.9h-0.4
				c0-0.2-0.1-0.3-0.2-0.5c-0.1-0.2-0.3-0.3-0.5-0.4c-0.2-0.1-0.5-0.2-0.7-0.2c-0.4,0-0.7,0.1-1,0.3c-0.3,0.2-0.4,0.5-0.4,0.9
				c0,0.3,0.1,0.5,0.2,0.7c0.1,0.2,0.3,0.3,0.5,0.4c0.2,0.1,0.5,0.2,0.8,0.3c0.4,0.1,0.7,0.2,0.9,0.3c0.2,0.1,0.4,0.3,0.6,0.5
				s0.2,0.5,0.2,0.8c0,0.3-0.1,0.5-0.2,0.7c-0.1,0.2-0.3,0.4-0.6,0.6c-0.3,0.1-0.6,0.2-1,0.2C247.3,55.4,247,55.4,246.7,55.2z"/>
			<path class="st0" d="M253.1,55.1c-0.4-0.3-0.8-0.6-1-1.1c-0.2-0.5-0.4-1-0.4-1.5c0-0.6,0.1-1.1,0.4-1.5c0.2-0.5,0.6-0.8,1-1.1
				c0.4-0.3,0.9-0.4,1.5-0.4c0.5,0,1,0.1,1.5,0.4c0.4,0.3,0.8,0.6,1,1.1c0.2,0.5,0.4,1,0.4,1.5c0,0.6-0.1,1.1-0.4,1.5
				c-0.2,0.5-0.6,0.8-1,1.1c-0.4,0.3-0.9,0.4-1.5,0.4C254,55.4,253.6,55.3,253.1,55.1z M255.8,54.8c0.4-0.2,0.7-0.5,0.9-0.9
				c0.2-0.4,0.3-0.9,0.3-1.4c0-0.5-0.1-1-0.3-1.4c-0.2-0.4-0.5-0.7-0.9-0.9c-0.4-0.2-0.8-0.3-1.3-0.3c-0.5,0-0.9,0.1-1.3,0.3
				c-0.4,0.2-0.7,0.5-0.9,0.9c-0.2,0.4-0.3,0.9-0.3,1.4c0,0.5,0.1,1,0.3,1.4c0.2,0.4,0.5,0.7,0.9,0.9c0.4,0.2,0.8,0.3,1.3,0.3
				C255,55.1,255.5,55,255.8,54.8z"/>
			<path class="st0" d="M260.3,55.1h2.2v0.3h-2.6v-5.9h0.4V55.1z"/>
			<path class="st0" d="M265,49.5v3.7c0,0.7,0.2,1.1,0.5,1.5c0.3,0.3,0.7,0.5,1.2,0.5c0.5,0,0.9-0.2,1.2-0.5
				c0.3-0.3,0.4-0.8,0.4-1.5v-3.7h0.4v3.7c0,0.8-0.2,1.3-0.6,1.7s-0.9,0.6-1.5,0.6s-1.1-0.2-1.5-0.6s-0.6-0.9-0.6-1.7v-3.7H265z"/>
			<path class="st0" d="M274.6,49.5v0.3h-1.7v5.5h-0.4v-5.5h-1.7v-0.3H274.6z"/>
			<path class="st0" d="M277.2,49.5v5.9h-0.4v-5.9H277.2z"/>
			<path class="st0" d="M281.1,55.1c-0.4-0.3-0.8-0.6-1-1.1c-0.2-0.5-0.4-1-0.4-1.5c0-0.6,0.1-1.1,0.4-1.5c0.2-0.5,0.6-0.8,1-1.1
				s0.9-0.4,1.5-0.4c0.5,0,1,0.1,1.5,0.4c0.4,0.3,0.8,0.6,1,1.1c0.2,0.5,0.4,1,0.4,1.5c0,0.6-0.1,1.1-0.4,1.5
				c-0.2,0.5-0.6,0.8-1,1.1c-0.4,0.3-0.9,0.4-1.5,0.4C282,55.4,281.5,55.3,281.1,55.1z M283.8,54.8c0.4-0.2,0.7-0.5,0.9-0.9
				c0.2-0.4,0.3-0.9,0.3-1.4c0-0.5-0.1-1-0.3-1.4c-0.2-0.4-0.5-0.7-0.9-0.9s-0.8-0.3-1.3-0.3s-0.9,0.1-1.3,0.3
				c-0.4,0.2-0.7,0.5-0.9,0.9c-0.2,0.4-0.3,0.9-0.3,1.4c0,0.5,0.1,1,0.3,1.4c0.2,0.4,0.5,0.7,0.9,0.9c0.4,0.2,0.8,0.3,1.3,0.3
				S283.4,55,283.8,54.8z"/>
			<path class="st0" d="M292,55.4h-0.4l-3.4-5.2v5.2h-0.4v-5.9h0.4l3.4,5.2v-5.2h0.4V55.4z"/>
			<path class="st0" d="M295.5,55.2c-0.3-0.1-0.5-0.3-0.7-0.5c-0.2-0.2-0.2-0.5-0.3-0.8h0.4c0,0.3,0.2,0.6,0.4,0.8
				c0.2,0.2,0.6,0.4,1.1,0.4c0.3,0,0.5-0.1,0.8-0.2c0.2-0.1,0.4-0.3,0.5-0.4c0.1-0.2,0.2-0.4,0.2-0.6c0-0.3-0.1-0.5-0.2-0.7
				c-0.1-0.2-0.3-0.3-0.5-0.4c-0.2-0.1-0.5-0.2-0.8-0.3c-0.4-0.1-0.7-0.2-0.9-0.3c-0.2-0.1-0.4-0.3-0.6-0.5
				c-0.2-0.2-0.2-0.5-0.2-0.9c0-0.3,0.1-0.5,0.2-0.8c0.1-0.2,0.4-0.4,0.6-0.5c0.3-0.1,0.6-0.2,0.9-0.2c0.5,0,0.9,0.1,1.3,0.4
				c0.3,0.3,0.5,0.6,0.6,0.9h-0.4c0-0.2-0.1-0.3-0.2-0.5c-0.1-0.2-0.3-0.3-0.5-0.4c-0.2-0.1-0.5-0.2-0.7-0.2c-0.4,0-0.7,0.1-1,0.3
				c-0.3,0.2-0.4,0.5-0.4,0.9c0,0.3,0.1,0.5,0.2,0.7c0.1,0.2,0.3,0.3,0.5,0.4c0.2,0.1,0.5,0.2,0.8,0.3c0.4,0.1,0.7,0.2,0.9,0.3
				c0.2,0.1,0.4,0.3,0.6,0.5s0.2,0.5,0.2,0.8c0,0.3-0.1,0.5-0.2,0.7c-0.1,0.2-0.3,0.4-0.6,0.6c-0.3,0.1-0.6,0.2-1,0.2
				C296.1,55.4,295.7,55.4,295.5,55.2z"/>
		</g>
		<g>
			<path class="st1" d="M89,17.6c1.9,1,3.3,2.3,4.3,4.1c1,1.8,1.5,3.8,1.5,6.1c0,2.3-0.5,4.4-1.5,6.1c-1,1.7-2.4,3.1-4.3,4
				c-1.9,1-4,1.4-6.4,1.4h-8.1V16.1h8.1C85,16.1,87.1,16.6,89,17.6z M88,33.4c1.3-1.3,2-3.2,2-5.6c0-2.4-0.7-4.3-2-5.7
				c-1.3-1.4-3.2-2-5.7-2h-3.3v15.3h3.3C84.8,35.4,86.7,34.7,88,33.4z"/>
			<path class="st1" d="M112.5,34.9h-9.3l-1.5,4.4h-4.9l8.4-23.3h5.4l8.4,23.3H114L112.5,34.9z M111.2,31.2l-3.4-9.7l-3.4,9.7H111.2
				z"/>
			<path class="st1" d="M143,16.1l-8.5,23.2h-5.7l-8.5-23.2h5l6.4,18.5l6.4-18.5H143z"/>
			<path class="st1" d="M150.4,16.1v23.2h-4.7V16.1H150.4z"/>
			<path class="st1" d="M169.6,17.6c1.9,1,3.3,2.3,4.3,4.1c1,1.8,1.5,3.8,1.5,6.1c0,2.3-0.5,4.4-1.5,6.1c-1,1.7-2.4,3.1-4.3,4
				c-1.9,1-4,1.4-6.4,1.4H155V16.1h8.1C165.6,16.1,167.7,16.6,169.6,17.6z M168.6,33.4c1.3-1.3,2-3.2,2-5.6c0-2.4-0.7-4.3-2-5.7
				c-1.3-1.4-3.2-2-5.7-2h-3.3v15.3h3.3C165.4,35.4,167.3,34.7,168.6,33.4z"/>
			<path class="st1" d="M192.4,16.1v16.3c0,2.3-0.7,4-2,5.3c-1.3,1.3-3.1,1.9-5.3,1.9c-2.2,0-4-0.6-5.4-1.9c-1.4-1.3-2-3.1-2-5.4
				h4.7c0,1,0.3,1.8,0.7,2.3c0.5,0.6,1.1,0.8,2,0.8c0.8,0,1.5-0.3,1.9-0.8c0.4-0.5,0.7-1.3,0.7-2.2V16.1H192.4z"/>
			<path class="st1" d="M202.4,16.1v14.4c0,1.6,0.4,2.8,1.2,3.6c0.8,0.8,2,1.2,3.5,1.2c1.5,0,2.7-0.4,3.5-1.2c0.8-0.8,1.2-2,1.2-3.6
				V16.1h4.7v14.3c0,2-0.4,3.6-1.3,5c-0.9,1.4-2,2.4-3.4,3.1c-1.4,0.7-3,1-4.8,1c-1.7,0-3.3-0.3-4.7-1c-1.4-0.7-2.5-1.7-3.3-3.1
				c-0.8-1.4-1.2-3-1.2-5V16.1H202.4z"/>
			<path class="st1" d="M240.9,39.4h-4.7l-10.5-15.9v15.9H221V16.1h4.7l10.5,16v-16h4.7V39.4z"/>
			<path class="st1" d="M250.2,16.1v23.2h-4.7V16.1H250.2z"/>
			<path class="st1" d="M259.5,38.1c-1.8-1-3.3-2.4-4.3-4.2c-1.1-1.8-1.6-3.9-1.6-6.1c0-2.3,0.5-4.3,1.6-6.1
				c1.1-1.8,2.5-3.2,4.3-4.2c1.8-1,3.8-1.5,6-1.5c2.2,0,4.2,0.5,6,1.5c1.8,1,3.2,2.4,4.3,4.2c1.1,1.8,1.6,3.8,1.6,6.1
				c0,2.3-0.5,4.3-1.6,6.1c-1.1,1.8-2.5,3.2-4.3,4.2c-1.8,1-3.8,1.5-6,1.5S261.4,39.1,259.5,38.1z M269.2,34.5
				c1.1-0.6,1.9-1.5,2.5-2.7c0.6-1.2,0.9-2.5,0.9-4.1c0-1.6-0.3-2.9-0.9-4.1c-0.6-1.2-1.4-2.1-2.5-2.7s-2.3-0.9-3.7-0.9
				s-2.6,0.3-3.7,0.9c-1.1,0.6-1.9,1.5-2.5,2.7c-0.6,1.2-0.9,2.5-0.9,4.1c0,1.6,0.3,2.9,0.9,4.1c0.6,1.2,1.4,2.1,2.5,2.7
				c1.1,0.6,2.3,0.9,3.7,0.9S268.2,35.1,269.2,34.5z"/>
			<path class="st1" d="M292.9,39.4l-5.1-9.1h-2.2v9.1h-4.7V16.1h8.7c1.8,0,3.3,0.3,4.6,0.9c1.3,0.6,2.2,1.5,2.8,2.6
				c0.6,1.1,0.9,2.3,0.9,3.6c0,1.5-0.4,2.9-1.3,4.1c-0.9,1.2-2.2,2.1-4,2.5l5.6,9.4H292.9z M285.5,26.8h3.9c1.3,0,2.2-0.3,2.8-0.9
				c0.6-0.6,0.9-1.5,0.9-2.5c0-1.1-0.3-1.9-0.9-2.5c-0.6-0.6-1.6-0.9-2.8-0.9h-3.9V26.8z"/>
		</g>
	</g>
	<g>
		<circle class="st2" cx="50.8" cy="15.4" r="6.6"/>
		<circle class="st2" cx="50.8" cy="35.6" r="6.6"/>
		<circle class="st2" cx="30.5" cy="15.4" r="6.6"/>
		<circle class="st2" cx="10.3" cy="15.4" r="6.6"/>
		<g>
			<circle class="st2" cx="10.3" cy="35.6" r="6.6"/>
			<circle class="st2" cx="10.3" cy="35.6" r="6.6"/>
		</g>
		<circle class="st2" cx="30.5" cy="35.6" r="6.6"/>
		<circle class="st2" cx="30.5" cy="55.8" r="6.6"/>
		<circle class="st2" cx="10.3" cy="55.8" r="6.6"/>
		<circle class="st2" cx="50.8" cy="55.8" r="6.6"/>
		<line class="st2" x1="37.1" y1="15.4" x2="44.2" y2="15.4"/>
		<line class="st2" x1="10.3" y1="29.1" x2="10.3" y2="22"/>
		<line class="st2" x1="30.5" y1="49.3" x2="30.5" y2="42.2"/>
		<line class="st2" x1="35.7" y1="52.1" x2="47.3" y2="41.2"/>
	</g>
</g>
</svg>
