<?xml version="1.0" encoding="utf-8"?>
<!-- Generator: Adobe Illustrator 27.4.0, SVG Export Plug-In . SVG Version: 6.00 Build 0)  -->
<svg version="1.1" id="Layer_1" xmlns="http://www.w3.org/2000/svg" xmlns:xlink="http://www.w3.org/1999/xlink" x="0px" y="0px"
	 viewBox="0 0 233.17 144" style="enable-background:new 0 0 233.17 144;" xml:space="preserve">
<style type="text/css">
	.st0{fill:#FF5F00;}
	.st1{fill:#EB001B;}
	.st2{fill:#F79E1B;}
</style>
<g>
	<rect id="XMLID_17_" x="85.67" y="16.33" class="st0" width="61.95" height="111.28"/>
	<path id="XMLID_18_" class="st1" d="M89.57,72c0-22.6,10.61-42.68,26.93-55.67C104.5,6.91,89.38,1.2,72.81,1.2
		c-39.1,0-70.8,31.63-70.8,70.8c0,39.1,31.63,70.8,70.8,70.8c16.51,0,31.63-5.71,43.68-15.13C100.17,114.87,89.57,94.6,89.57,72z"/>
	<path id="XMLID_19_" class="st2" d="M231.16,72c0,39.1-31.63,70.8-70.8,70.8c-16.51,0-31.63-5.71-43.68-15.13
		c16.51-12.99,26.93-33.01,26.93-55.67c0-22.6-10.61-42.68-26.93-55.67C128.67,6.91,143.79,1.2,160.36,1.2
		C199.53,1.2,231.16,33.02,231.16,72z"/>
</g>
</svg>
