<?xml version="1.0" encoding="utf-8"?>
<!-- Generator: Adobe Illustrator 27.4.0, SVG Export Plug-In . SVG Version: 6.00 Build 0)  -->
<svg version="1.1" id="Layer_1" xmlns="http://www.w3.org/2000/svg" xmlns:xlink="http://www.w3.org/1999/xlink" x="0px" y="0px"
	 viewBox="0 0 512 144" style="enable-background:new 0 0 512 144;" xml:space="preserve">
<style type="text/css">
	.st0{fill:#1081C8;}
</style>
<g id="XMLID_1_">
	<path id="XMLID_21_" class="st0" d="M190.35,134.18V104.3V44.27V8.64c-4.21-0.7-8.28-0.98-12.34-0.98c-3.93,0-8,0.28-12.2,0.98
		v30.3v60.04v22.3C165.8,138.81,185.02,135.58,190.35,134.18 M366.82,108.09c-1.68,5.61-4.35,10.38-8,14.59
		c-3.65,4.07-8,7.43-13.47,9.68c-5.33,2.38-11.78,3.51-18.94,3.51c-7.29,0-13.61-1.12-18.94-3.51c-5.33-2.38-9.82-5.61-13.33-9.68
		c-3.51-4.21-6.17-8.98-8-14.59c-1.82-5.61-2.67-11.64-2.67-18.1c0-6.45,0.84-12.48,2.67-18.24c1.82-5.61,4.49-10.52,8-14.73
		c3.51-4.07,8-7.43,13.33-9.82c5.33-2.38,11.64-3.51,18.94-3.51c7.29,0,13.61,1.26,18.94,3.51c5.47,2.38,9.82,5.61,13.47,9.82
		c3.51,4.21,6.17,9.12,8,14.73c1.68,5.75,2.53,11.78,2.53,18.24C369.34,96.59,368.5,102.62,366.82,108.09 M343.11,78.07
		c0-8.98-7.43-16.41-16.55-16.41s-16.55,7.29-16.55,16.41v23.43c0,8.98,7.43,16.41,16.55,16.41s16.55-7.29,16.55-16.41V78.07z
		 M153.74,85.93c0-5.89-0.84-11.5-2.67-16.69c-1.68-5.19-4.35-9.68-7.72-13.47c-3.37-3.79-7.57-6.73-12.48-8.98
		c-4.91-2.1-10.38-3.23-16.69-3.23c-7.15,0-13.47,1.26-18.8,3.65c-5.33,2.52-9.96,5.75-13.61,9.96c-3.65,4.21-6.45,9.26-8.28,14.87
		c-1.82,5.75-2.81,11.78-2.81,18.38s0.84,12.76,2.67,18.38c1.82,5.61,4.63,10.38,8.28,14.45c3.79,4.07,8.56,7.15,14.59,9.54
		c6.03,2.24,13.19,3.37,21.46,3.37c11.36,0,21.6-1.68,30.58-5.19c-0.14-3.65-0.7-7.01-1.54-10.24c-0.98-3.23-1.96-5.89-3.37-8.28
		c-3.65,1.4-7.57,2.38-11.78,3.23c-4.07,0.7-8.14,1.12-12.06,1.12c-7.15,0-13.05-1.54-17.39-4.63c-4.35-3.09-6.87-8-7.29-14.87
		h57.65c0.28-1.26,0.42-2.95,0.56-5.05C153.6,90.14,153.74,88.03,153.74,85.93 M130.45,80.46H95.39c0.56-5.75,2.38-10.38,5.33-13.61
		c2.95-3.23,7.43-4.77,13.19-4.77c5.05,0,9.12,1.68,11.92,5.05C128.63,70.5,130.17,74.99,130.45,80.46 M512,134.18V77.79
		c0-11.78-2.38-20.48-7.15-25.95c-4.77-5.47-12.34-8.28-22.58-8.28c-6.45,0-11.78,1.54-16.13,4.77c-4.21,3.09-7.43,6.87-9.82,11.08
		c-3.93-10.52-12.91-15.85-26.93-15.85c-3.23,0-6.17,0.42-8.84,1.26c-2.67,0.84-4.91,1.96-7.01,3.37c-2.1,1.4-3.93,2.95-5.33,4.63
		c-1.54,1.68-2.67,3.37-3.65,5.19c-0.14-0.84-0.28-1.82-0.42-2.95s-0.42-2.24-0.56-3.51c-0.28-1.12-0.56-2.38-0.84-3.37
		c-0.28-1.12-0.56-1.96-0.98-2.52c-1.68-0.28-3.23-0.56-4.63-0.7c-1.54-0.14-3.23-0.28-5.19-0.28c-1.96,0-3.79,0.14-5.33,0.28
		c-1.68,0.14-3.23,0.42-4.91,0.7v88.65c4.21,0.7,8.28,0.98,12.34,0.98c4.07,0,8.14-0.28,12.34-0.98V87.89c0-4.77,0.42-8.7,1.4-11.64
		c0.98-2.95,2.1-5.33,3.79-7.01c1.54-1.68,3.37-2.81,5.33-3.37c1.96-0.56,3.93-0.84,5.89-0.84c4.77,0,7.86,1.68,9.54,4.91
		c1.54,3.37,2.38,8.14,2.38,14.31v50.08c4.21,0.7,8.28,0.98,12.34,0.98c4.07,0,8.14-0.28,12.34-0.98V86.49
		c0-4.49,0.42-8.14,1.4-10.94c0.98-2.81,2.24-4.91,3.79-6.45c1.54-1.54,3.23-2.67,5.19-3.23c1.96-0.56,3.79-0.84,5.75-0.84
		c4.77,0,7.86,1.68,9.4,4.91c1.54,3.37,2.38,8.14,2.38,14.31v50.08c4.21,0.7,8.28,0.98,12.34,0.98
		C503.72,135.3,507.79,134.88,512,134.18 M258.1,86.63l23-40.96c-4.21-0.7-8.42-0.98-12.91-0.98c-4.63,0-9.26,0.42-13.75,0.98
		l-22.3,42.08l26.09,46.43c4.49,0.7,8.84,0.98,12.91,0.98c4.35,0,8.98-0.28,13.75-0.98L258.1,86.63L258.1,86.63z M216.72,135.3
		c4.21,0,8.28-0.28,12.34-0.98V8.92c-4.07-0.7-8.14-0.98-12.34-0.98c-4.21,0-8.28,0.28-12.2,0.98v125.26
		C208.59,134.88,212.66,135.3,216.72,135.3 M57.65,32.2v101.98c-2.1,0.28-4.21,0.42-6.31,0.56c-2.1,0.14-4.07,0.28-6.03,0.28
		c-1.96,0-4.07-0.14-6.31-0.14c-2.24-0.14-4.49-0.28-6.87-0.7V32.2H0.98C0.28,28.84,0,25.19,0,21.4c0-3.51,0.42-7.01,0.98-10.52
		h87.81c0.7,3.51,1.12,6.87,1.12,10.52c0,3.79-0.42,7.29-1.12,10.8H57.65L57.65,32.2z"/>
</g>
</svg>
