<?xml version="1.0" encoding="utf-8"?>
<!-- Generator: Adobe Illustrator 27.4.0, SVG Export Plug-In . SVG Version: 6.00 Build 0)  -->
<svg version="1.1" id="Layer_1" xmlns="http://www.w3.org/2000/svg" xmlns:xlink="http://www.w3.org/1999/xlink" x="0px" y="0px"
	 viewBox="0 0 445.09 144" style="enable-background:new 0 0 445.09 144;" xml:space="preserve">
<style type="text/css">
	
		.st0{clip-path:url(#SVGID_00000038391303963151745360000015534177879254834099_);fill:url(#SVGID_00000180324789963552537840000005259688509381605539_);}
</style>
<g id="XMLID_1_">
	<g id="XMLID_2_">
		<g>
			<defs>
				<path id="SVGID_1_" d="M229.5,46.87c-0.24,19.62,17.46,30.62,30.86,37.08c13.76,6.7,18.3,11.01,18.3,16.99
					c-0.12,9.21-11.01,13.16-21.17,13.4c-17.7,0.24-27.99-4.78-36.24-8.61l-6.34,29.91c8.25,3.83,23.45,7.06,39.24,7.3
					c37.08,0,61.25-18.3,61.37-46.65c0.12-36.01-49.76-38.04-49.4-54.07c0.12-4.9,4.78-10.05,14.95-11.36
					c5.02-0.72,19.02-1.2,34.81,6.1l6.22-28.95c-8.49-3.11-19.38-6.1-33.02-6.1C254.14,1.89,229.62,20.43,229.5,46.87 M381.66,4.28
					c-6.82,0-12.44,3.95-14.95,10.05l-52.87,126.32h37.08l7.42-20.34h45.22l4.31,20.34h32.66L412.04,4.28H381.66 M386.8,41.13
					l10.65,51.2h-29.31L386.8,41.13 M184.53,4.28l-29.19,136.37h35.29L219.81,4.28H184.53 M132.37,4.28L95.65,97.11L80.81,18.16
					C79.02,9.31,72.2,4.28,64.55,4.28H4.5L3.66,8.23c12.32,2.63,26.32,6.94,34.81,11.6c5.14,2.87,6.7,5.26,8.37,11.96l28.11,108.85
					h37.32L169.45,4.28H132.37"/>
			</defs>
			<clipPath id="SVGID_00000084508835791590087440000005347931121386750365_">
				<use xlink:href="#SVGID_1_"  style="overflow:visible;"/>
			</clipPath>
			
				<linearGradient id="SVGID_00000067195624170711894720000018135996376119727498_" gradientUnits="userSpaceOnUse" x1="-342.1181" y1="387.6021" x2="-341.2414" y2="387.6021" gradientTransform="matrix(419.708 -154.5691 -154.5691 -419.708 203544.125 109937.0391)">
				<stop  offset="0" style="stop-color:#222357"/>
				<stop  offset="1" style="stop-color:#254AA5"/>
			</linearGradient>
			
				<polyline style="clip-path:url(#SVGID_00000084508835791590087440000005347931121386750365_);fill:url(#SVGID_00000067195624170711894720000018135996376119727498_);" points="
				-42.04,18.64 388.12,-139.74 485.97,126.06 55.81,284.43 			"/>
		</g>
	</g>
</g>
</svg>
