<?xml version="1.0" encoding="utf-8"?>
<!-- Generator: Adobe Illustrator 27.4.0, SVG Export Plug-In . SVG Version: 6.00 Build 0)  -->
<svg version="1.1" id="Layer_1" xmlns="http://www.w3.org/2000/svg" xmlns:xlink="http://www.w3.org/1999/xlink" x="0px" y="0px"
	 viewBox="0 0 550.28 144" style="enable-background:new 0 0 550.28 144;" xml:space="preserve">
<style type="text/css">
	.st0{fill:#E60000;}
	.st1{fill:#F27E7E;}
	.st2{fill:#ED4A4A;}
	.st3{fill:#F9BDBD;}
	.st4{fill:#F9BEBE;}
	.st5{fill:#F38787;}
	.st6{fill:#FACBCB;}
	.st7{fill:#FACFCF;}
	.st8{fill:#F9C2C2;}
	.st9{fill:#F38989;}
	.st10{fill:#F49090;}
	.st11{fill:#FFFFFF;}
	.st12{fill:#F9C3C3;}
</style>
<g>
	<path class="st0" d="M100.24,11.59c5.99,2.25,11.1,5.96,15.85,10.07c11.33,9.79,18.14,22.36,21.63,36.8
		c0.71,2.95,0.6,6.07,1.5,9.02c0.35,1.47,0.31,2.94,0.02,4.41c-0.14,10.95-2.5,21.42-7.32,31.24c-2.32,4.73-5.29,9.15-8.73,13.17
		c-6.71,7.85-14.58,14.28-24.08,18.45c-7,3.07-14.22,5.48-22.01,5.53c-1.45,0.61-3.04-0.17-4.49,0.48c-1.01,0-2.02,0-3.03,0
		c-1.29-0.41-2.59-0.38-3.88-0.02c-13.48-1.52-25.66-6.21-36.35-14.67C16.2,115.65,8.09,102.12,4.5,85.86
		c-0.86-3.92-1.06-8.03-0.91-12.1c-0.28-1.26-0.32-2.52,0.03-3.78c-0.21-10,2.74-19.24,7.03-28.07c2.39-4.93,5.6-9.37,9.23-13.56
		c6.66-7.69,14.7-13.39,23.9-17.52c5.36-2.41,10.96-3.92,16.79-4.92c3.03-0.52,6.15,0.19,9.1-1.04c0.88-0.36,2.05-0.22,2.94,0.5
		c1.3-0.39,2.61-0.39,3.91,0c7.17,0.63,14.2,1.81,20.72,5.07c-0.4,1.75-1.87,1.35-3.01,1.4c-17.19,0.89-31.98,7.27-44.09,19.51
		c-7.43,7.51-12.21,16.55-14.46,26.9c-0.33,1.53-0.56,3.08-0.93,4.6c-0.13,1.14-0.1,2.29-0.06,3.44c0.01,1.01,0,2.01,0.01,3.02
		c-0.05,1.16-0.04,2.32-0.03,3.47c0.39,16.53,13.94,32.92,30.07,36.36c1.12,0.24,2.25,0.4,3.37,0.67c1.26,0.14,2.53,0.08,3.79,0.09
		c1.11,0.02,2.21,0.01,3.3-0.26c17.19-1.21,31.87-15.76,32.26-34.78c0.31-14.88-6.18-25.89-21.22-31.77
		c-1.46-0.57-2.97-0.99-4.45-1.5c-4.11-1.4-4.45-1.92-4.22-6.36c0.54-10.2,10.01-21.43,19.95-23.72
		C98.44,11.3,99.33,11.27,100.24,11.59z"/>
	<path class="st0" d="M269.63,73.1c1.13-12.15,7.61-21,19.89-22.6c2.14-0.4,4.28-0.4,6.42,0c1.82-0.3,3.96,1.74,5.18,0.36
		c1.19-1.34,0.33-3.76,0.37-5.7c0.07-4.23,0.05-8.46,0.06-12.7c4.21-0.67,8.42-0.56,12.63-0.06c0.37,6.25,0.16,12.51,0.15,18.76
		c-0.02,16.48,0.17,32.96-0.1,49.44c-3.82,0.8-7.65,0.39-11.49,0.2c-1.31-0.76-0.08-2.2-0.97-3.15c-0.79-0.29-1.15,0.51-1.64,0.98
		c-5.25,5-15.83,4.36-21.4-0.34c-6.04-5.09-8.66-11.8-9.11-19.51C269.99,76.89,269.99,75,269.63,73.1z"/>
	<path class="st0" d="M482.6,51.86c0.3,2.88,0.26,2.8,2.85,1.37c7.21-3.97,14.39-3.94,21.37,0.53c1.38,0.89,2.3,0.86,3.73,0.13
		c3.81-1.93,7.82-3.39,12.19-3.39c1.3-0.39,2.61-0.39,3.91,0c6.38,0.08,11.76,2.15,14.99,7.99c1.73,3.13,1.98,6.75,2.59,10.22
		c0.37,10.44,0.26,20.87,0.06,31.31c-4.21,0.58-8.43,0.56-12.64,0.01l-0.11,0.06c-0.57-8.51-0.08-17.04-0.26-25.55
		c-0.03-1.34,0.28-2.7-0.26-4.01c-0.18-3.5-0.25-7.18-4.26-8.67c-4.93-1.83-9.48-0.49-13.47,2.57c-1.48,1.14,0.76,2.77,0.2,4.23
		c0.42,10.45,0.27,20.9,0.08,31.35c-4.03,0.65-8.06,0.41-12.1,0.14c-0.6-5.18-0.12-10.39-0.27-15.58
		c-0.14-4.67,0.29-9.36-0.24-14.03c-0.12-3.72-1-7.38-4.59-8.95c-2.92-1.28-6.24-0.5-9.21,0.89c-0.54,0.1-15.41-1.68-15.89-1.91
		c-0.2-2.94-0.35-5.89,0.08-8.83C475.1,51.42,478.85,51.22,482.6,51.86z"/>
	<path class="st0" d="M215.72,72.47c1.58-12.3,8.72-20.58,19.89-21.97c2.35-0.4,4.7-0.39,7.05,0c8.63,0.55,16.63,8.15,18.85,16.18
		c0.76,2.76,1.55,5.58,1.62,8.3c0.16,6.15-1.4,12.07-4.92,17.26c-3.25,4.79-7.61,7.98-13.44,9.19
		c-12.37,2.56-22.82-2.64-27.23-14.73c-0.85-2.34-1.82-4.7-1.81-7.28C216.07,77.1,216.08,74.79,215.72,72.47z"/>
	<path class="st0" d="M351.09,100.61c0.03-2.53-1.25-2.91-3.01-1.55c-5.85,4.51-15.34,4.02-21.14-1.06
		c-2.76-2.42-4.97-5.68-4.83-9.81c-0.36-1.26-0.32-2.53-0.02-3.79c0.18-6.12,4.58-9.94,9.46-11.92c5.32-2.16,10.92-3.14,16.57-3.66
		c1.77-0.16,1.78-0.96,1.65-2.17c-0.4-3.7-2.95-5.89-6.68-6.08c-4.35-0.23-8.29,0.84-11.87,3.24c-1.42,0.95-2.18,0.63-2.77-0.91
		c-0.61-1.6-1.18-3.29-2.16-4.67c-1.32-1.86-0.42-2.91,1.05-3.64c4.47-2.23,9.12-3.97,14.21-4.08c1.51-0.39,3.03-0.39,4.54,0
		c9.85,0.52,16.01,6.24,16.28,16.91c0.57,7.67,0.17,15.36,0.21,23.03c0.02,3.4,0.47,6.83-0.3,10.21l0.06,0.11
		C358.59,101.08,354.84,101.37,351.09,100.61z"/>
	<path class="st0" d="M437.49,101.87c-5.27-0.7-10.05-2.53-13.71-6.51c-6.42-6.99-8.6-15.14-7.03-24.57
		c1.19-7.18,4.2-12.98,10.33-16.91c10.65-6.83,28.69-4.32,34.27,11.19c3.46,9.6,2.76,18.89-3.14,27.37
		c-3.71,5.34-8.8,8.76-15.6,8.98C440.95,102.03,439.15,101.25,437.49,101.87z"/>
	<path class="st0" d="M176.02,51.86c4.12,10.45,8.24,20.91,12.68,32.18c4.4-11.25,8.5-21.71,12.59-32.18
		c3.97-0.73,7.97-0.23,11.96-0.27c0.44,0,0.62,0.46,0.54,0.92c-5.05,12.4-10.11,24.8-15.15,37.2c-1.48,3.63-2.93,7.27-4.39,10.91
		c-3.73,0.61-7.46,0.65-11.18-0.02c-3.14-7.22-6.35-14.4-9.41-21.65c-3.81-9.01-7.5-18.06-11.24-27.1
		C166.96,51.29,171.49,51.29,176.02,51.86z"/>
	<path class="st0" d="M396.25,50.5c6.7,0.62,12.03,3.41,15.35,9.51c0.69,1.26,0.86,1.92-0.77,2.68c-2,0.93-3.94,2.2-5.55,3.7
		c-1.82,1.7-2.5,0.69-3.48-0.77c-3.05-4.54-7.59-6.29-11.84-4.36c-3.33,1.51-5.35,4.17-5.89,7.93c-0.75,5.23-1.31,10.59,1.01,15.43
		c2.67,5.58,7.3,6.83,13.48,5.78c2.86-0.49,5.69-1.37,8.01-3.38c1.09-0.94,2.16-0.93,2.63,0.79c0.65,2.43,1.21,4.91,2.09,7.26
		c0.53,1.4-0.24,1.9-1.06,2.4c-3.58,2.19-7.48,3.51-11.67,3.84c-0.84,0.07-1.61,0.19-2.35,0.57c-1.5-0.38-3-0.38-4.5,0
		c-4.03-0.83-8.04-1.53-11.48-4.18c-6.06-4.66-9.07-10.72-9.26-18.29c-0.32-2.31-0.32-4.62,0-6.94c0.6-7.77,3.44-14.43,10.05-18.92
		c2.76-1.87,5.95-3.03,9.41-3.05C392.39,50.11,394.32,50.11,396.25,50.5z"/>
	<path class="st0" d="M471.51,60.59c1.44,0,2.88,0.1,4.3-0.02c3.96-0.35,7.74,0.22,11.34,1.93c-1.16,0.95-2.5,1.7-3.29,3.06
		c-0.55,10.28-0.08,20.57-0.25,30.86c-0.02,1.23,0.27,2.5-0.26,3.7l-0.05-0.04c-4.01,0.51-8.02,0.53-12.03-0.01
		c-0.37-12.88-0.09-25.77-0.15-38.65C471.12,61.05,471.35,60.85,471.51,60.59z"/>
	<path class="st1" d="M313.96,100.64c0-22.73,0-45.45,0-68.18c0.22-0.3,0.42-0.29,0.62,0.02c0,22.71,0,45.43,0,68.14
		C314.39,100.93,314.18,100.94,313.96,100.64z"/>
	<path class="st1" d="M471.51,60.59c-0.01,13.14-0.01,26.27-0.02,39.41c0.17,0.14,0.22,0.27,0.15,0.4
		c-0.07,0.12-0.13,0.18-0.19,0.18c-1.01-0.49-0.66-1.43-0.66-2.2c-0.02-14.98-0.02-29.96,0.01-44.93c0-0.74-0.44-1.71,0.64-2.16
		c0.19,0.12,0.26,0.25,0.21,0.39c-0.06,0.14-0.12,0.21-0.18,0.21C471.49,54.78,471.5,57.69,471.51,60.59z"/>
	<path class="st1" d="M483.36,100.11c-0.01-10.75-0.03-21.49-0.02-32.24c0-0.79-0.29-1.69,0.53-2.31
		c0.03,10.86,0.06,21.73,0.07,32.59C483.94,98.83,484.17,99.64,483.36,100.11z"/>
	<path class="st2" d="M362.29,100.65c0.03-11.08,0.06-22.16,0.09-33.24c0.83,0.47,0.56,1.28,0.56,1.96
		c0.02,9.82,0.02,19.63-0.01,29.45C362.93,99.46,363.32,100.34,362.29,100.65z"/>
	<path class="st1" d="M513.33,100c0.05-10.44,0.11-20.88,0.16-31.32c0.74,0.51,0.54,1.29,0.54,1.99c0.01,9.24,0.02,18.48-0.01,27.72
		c0,0.76,0.36,1.7-0.66,2.19c-0.19-0.12-0.25-0.24-0.2-0.38C513.22,100.07,513.27,100,513.33,100z"/>
	<path class="st3" d="M544.05,100.03c0.06-10.44,0.13-20.87,0.19-31.31c0.64,0.56,0.52,1.31,0.52,2.03
		c0.01,9.23,0.01,18.46-0.01,27.69c0,0.78,0.28,1.7-0.69,2.21c-0.17-0.13-0.23-0.27-0.18-0.41
		C543.94,100.1,543.99,100.03,544.05,100.03z"/>
	<path class="st1" d="M500.96,70.56c0.99,0.94,0.51,2.16,0.52,3.24c0.06,8.73,0.07,17.47,0.09,26.21c0.18,0.14,0.24,0.28,0.17,0.41
		c-0.07,0.13-0.13,0.19-0.2,0.19c-0.98-0.35-0.65-1.21-0.65-1.86C500.9,89.35,500.93,79.96,500.96,70.56z"/>
	<path class="st3" d="M531.02,70.54c0.83,0.46,0.56,1.26,0.56,1.94c0,9.21-0.02,18.42-0.04,27.63c-0.78-0.63-0.57-1.52-0.57-2.33
		C530.98,88.7,531,79.62,531.02,70.54z"/>
	<path class="st2" d="M213.8,52.51c-2.72-1.45-5.64-0.4-8.46-0.67c-1.33-0.13-2.69,0-4.04,0.02c1.12-1.45,2.66-0.53,3.98-0.62
		c2.58-0.17,5.19-0.05,7.78-0.05C214.08,51.19,214.84,51.34,213.8,52.51z"/>
	<path class="st2" d="M176.02,51.86c-4.53,0-9.07,0-13.6,0c1.48-1.42,3.32-0.65,4.92-0.59C170.24,51.37,173.23,50.4,176.02,51.86z"
		/>
	<path class="st4" d="M314.58,32.47l-0.31-0.04l-0.31,0.02c-4.14,0-8.27,0.01-12.41,0.01C305.9,31.3,310.24,31.3,314.58,32.47z"/>
	<path class="st2" d="M544.05,100.03c0.07,0.2,0.07,0.41,0.02,0.61c-3.53,0.02-7.06,0.06-10.59,0.04c-0.64,0-1.51,0.38-1.82-0.64
		C535.78,100.04,539.91,100.03,544.05,100.03z"/>
	<path class="st4" d="M313.96,100.64c0.21,0.03,0.42,0.02,0.62-0.02c-3.92,1.33-7.88,0.92-11.84,0.2
		C306.49,100.75,310.22,100.69,313.96,100.64z"/>
	<path class="st2" d="M501.54,100.61c-0.02-0.2-0.01-0.4,0.03-0.6c3.92-0.01,7.84-0.01,11.76-0.02c0.03,0.19,0.04,0.39,0.04,0.58
		C509.42,100.59,505.48,100.6,501.54,100.61z"/>
	<path class="st2" d="M471.46,100.58c-0.01-0.2,0-0.39,0.04-0.58c3.94,0.02,7.88,0.05,11.82,0.07c-1.86,1.3-3.96,0.46-5.93,0.6
		C475.41,100.8,473.43,100.62,471.46,100.58z"/>
	<path class="st4" d="M351.09,100.61c3.75,0.05,7.5,0.1,11.25,0.15C358.58,101.63,354.83,101.88,351.09,100.61z"/>
	<path class="st4" d="M183.07,100.61c3.73,0.01,7.45,0.01,11.18,0.02C190.53,101.8,186.8,101.81,183.07,100.61z"/>
	<path class="st2" d="M471.47,51.88c-0.04-0.2-0.05-0.4-0.03-0.6c3.72,0.19,7.5-0.86,11.15,0.57
		C478.89,51.86,475.18,51.87,471.47,51.88z"/>
	<path class="st3" d="M371,72.48c0,2.31,0,4.62,0,6.94C370.14,77.1,370.14,74.79,371,72.48z"/>
	<path class="st2" d="M215.72,72.47c0.86,2.31,0.86,4.63,0,6.94C215.72,77.1,215.72,74.79,215.72,72.47z"/>
	<path class="st2" d="M242.65,50.5c-2.35,0-4.7,0-7.05,0C237.95,49.57,240.3,49.57,242.65,50.5z"/>
	<path class="st2" d="M295.94,50.5c-2.14,0-4.28,0-6.42,0C291.66,49.61,293.8,49.61,295.94,50.5z"/>
	<path class="st2" d="M269.63,73.1c0.85,1.9,0.85,3.79,0,5.69C269.63,76.89,269.63,75,269.63,73.1z"/>
	<path class="st2" d="M396.25,50.5c-1.93,0-3.86,0-5.79,0C392.39,49.57,394.32,49.57,396.25,50.5z"/>
	<path class="st5" d="M437.49,101.87c1.62-1.13,3.42-0.3,5.13-0.47C440.99,102.48,439.2,101.81,437.49,101.87z"/>
	<path class="st6" d="M139.25,71.89c-0.01-1.47-0.02-2.94-0.02-4.41C139.99,68.94,140.13,70.41,139.25,71.89z"/>
	<path class="st2" d="M346.1,50.5c-1.51,0-3.03,0-4.54,0C343.07,49.59,344.58,49.59,346.1,50.5z"/>
	<path class="st1" d="M391.73,101.88c1.5-0.87,3-0.87,4.5,0C394.73,101.88,393.23,101.88,391.73,101.88z"/>
	<path class="st7" d="M3.62,69.98c-0.01,1.26-0.02,2.52-0.03,3.78C2.74,72.5,2.86,71.24,3.62,69.98z"/>
	<path class="st8" d="M322.09,84.39c0.01,1.26,0.02,2.53,0.02,3.79C321.32,86.93,321.24,85.66,322.09,84.39z"/>
	<path class="st2" d="M76.51,5.37c-1.3,0-2.61,0-3.91,0C73.9,4.46,75.21,4.46,76.51,5.37z"/>
	<path class="st2" d="M526.66,50.5c-1.3,0-2.61,0-3.91,0C524.05,49.59,525.35,49.59,526.66,50.5z"/>
	<path class="st9" d="M67.6,110.64c1.39-1.14,2.95-0.31,4.43-0.38c0,0.13,0.01,0.27,0.01,0.4C70.57,110.66,69.09,110.65,67.6,110.64
		z"/>
	<path class="st7" d="M33.9,69.35c0.75,1.25,0.88,2.51,0.03,3.78C33.92,71.87,33.91,70.61,33.9,69.35z"/>
	<path class="st9" d="M33.9,62.42c0.94,1.29,0.77,2.57-0.02,3.86C33.88,64.99,33.89,63.7,33.9,62.42z"/>
	<path class="st10" d="M72.05,110.67c0-0.13-0.01-0.27-0.01-0.4c1.07-0.03,2.13-0.06,3.2-0.09
		C74.3,111.11,73.14,110.67,72.05,110.67z"/>
	<path class="st11" d="M282.16,75.62c-0.49-11.94,8.55-17.48,19.27-13.1c0.89,4.29,0.27,8.63,0.35,12.95
		c0.06,3.61,0.29,7.24-0.17,10.85c-4.62,6.57-11.83,6.17-15.65,1.76c-2.23-2.57-3.28-5.45-3.78-8.67
		C282.51,78.14,282.55,76.88,282.16,75.62z"/>
	<path class="st2" d="M301.61,86.31c-0.06-7.93-0.12-15.86-0.18-23.79c0.72,0.31,0.7,0.95,0.7,1.57c0.01,6.94,0.01,13.88-0.02,20.83
		C302.11,85.38,301.78,85.85,301.61,86.31z"/>
	<path class="st12" d="M282.16,75.62c0.79,1.26,0.88,2.52,0.02,3.79C282.17,78.14,282.16,76.88,282.16,75.62z"/>
	<path class="st11" d="M237.54,90.78c-4.29-0.23-6.65-3.08-8.05-6.58c-1.97-4.96-1.99-10.26-0.61-15.35c1.07-3.95,3.98-6.54,8-7.71
		c1.5-0.35,3-0.35,4.5,0c5.43,1.56,8.37,6.08,8.78,12.17c0.39,5.75-0.41,10.96-4.55,15.33c-1.21,1.28-2.74,1.63-4.26,2.14
		C240.08,91.1,238.81,91.1,237.54,90.78z"/>
	<path class="st1" d="M241.38,61.13c-1.5,0-3,0-4.5,0C238.38,60.27,239.88,60.27,241.38,61.13z"/>
	<path class="st2" d="M237.54,90.78c1.27,0,2.54,0,3.81,0C240.08,91.59,238.81,91.59,237.54,90.78z"/>
	<path class="st11" d="M349.86,87.6c-3.05,3.62-7.19,4.21-11.43,3.55c-2.25-0.35-4.17-2.21-4.22-4.67c-0.06-2.36,0.34-4.87,3-6.13
		c3.98-1.89,8.16-2.47,12.51-2.13C350.4,81.33,350.15,84.47,349.86,87.6z"/>
	<path class="st1" d="M349.86,87.6c-0.05-3.13-0.1-6.26-0.15-9.38C351,81.32,350.61,84.46,349.86,87.6z"/>
	<path class="st11" d="M428.75,74.52c-0.11-3.08,0.53-6.79,3.31-10.12c3-3.59,6.91-3.84,10.67-2.96c3.81,0.89,6.39,3.92,7.32,7.89
		c1.02,4.34,1.08,8.73,0.02,13.07c-1.14,4.63-6.17,8.22-11.15,8.31c-4.96,0.09-7.96-3.99-9.52-8.49
		C428.63,80.01,428.82,77.76,428.75,74.52z"/>
</g>
</svg>
